<svg width="42" height="42" viewBox="0 0 42 42" fill="none" xmlns="http://www.w3.org/2000/svg">
<path d="M37.46 19.16V19.82C37.3519 23.2272 36.4877 26.5678 34.93 29.6C33.0872 32.4675 30.623 34.8837 27.72 36.67L27.16 37L26.16 36.43L20.5 33.16C20.1536 32.9642 19.8196 32.7471 19.5 32.51C19.2182 32.3199 18.9508 32.1094 18.7 31.88C18.1157 31.3845 17.5861 30.828 17.12 30.22C16.4681 29.3721 15.9395 28.4361 15.55 27.44C14.8492 25.674 14.5387 23.7773 14.64 21.88C15.1954 21.5777 15.8177 21.4195 16.45 21.42H16.91C16.7525 23.0725 16.9642 24.7394 17.53 26.3C18.2738 28.3777 19.7301 30.1245 21.64 31.23L27.14 34.4L27.56 34.11C29.7405 32.6201 31.5977 30.7052 33.02 28.48C34.2985 25.9947 35.0444 23.27 35.21 20.48L32.88 19.13C33.0696 18.3552 33.1934 17.5657 33.25 16.77L37.46 19.16Z" fill="#3880FF"/>
<path d="M31.02 8V15.7C31.0202 16.0974 31.0002 16.4946 30.96 16.89C30.96 17.23 30.88 17.57 30.82 17.89C30.6716 18.6397 30.4506 19.3732 30.16 20.08C29.7574 21.075 29.2153 22.0077 28.55 22.85C27.3751 24.3404 25.891 25.5584 24.2 26.42C23.5278 26.0097 23.0027 25.3971 22.7 24.67C24.2012 23.9724 25.527 22.9473 26.58 21.67C28.0004 19.9927 28.783 17.8679 28.79 15.67V9.36L28.33 9.14C25.9482 7.99641 23.3596 7.3467 20.72 7.23C17.9063 7.36016 15.1522 8.08616 12.64 9.36V12.05C11.8744 12.2711 11.1285 12.5554 10.41 12.9V8L10.97 7.68C13.9792 6.07007 17.3107 5.15434 20.72 5C24.1246 5.15977 27.4499 6.08249 30.45 7.7L31.02 8Z" fill="#3880FF"/>
<path d="M11.77 17.24L6.27 20.41C6.27 20.55 6.27 20.72 6.27 20.9C6.46137 23.5406 7.19316 26.1138 8.42 28.46C9.93516 30.829 11.9317 32.8529 14.28 34.4L16.64 33.05C17.2172 33.6008 17.8394 34.1026 18.5 34.55L14.28 37L13.71 36.67C10.8153 34.8758 8.35859 32.4567 6.52 29.59C4.95929 26.5559 4.0982 23.2106 4 19.8V19.15L5 18.57L10.64 15.31C10.984 15.1122 11.3378 14.932 11.7 14.77C12.01 14.63 12.33 14.5 12.65 14.39C13.3724 14.1347 14.12 13.9571 14.88 13.86C15.9421 13.72 17.0179 13.72 18.08 13.86C19.9556 14.1451 21.7488 14.8269 23.34 15.86C23.3221 16.6266 23.0786 17.371 22.64 18C21.2969 17.0474 19.7605 16.4022 18.14 16.11C15.9499 15.7176 13.6915 16.1182 11.77 17.24Z" fill="#3880FF"/>
</svg>
