<svg width="209" height="209" viewBox="0 0 209 209" fill="none" xmlns="http://www.w3.org/2000/svg">
<rect width="209" height="209" fill="white"/>
<path d="M143.2 47.1667L115.967 87.3C115.891 87.8348 115.968 88.38 116.189 88.8728C116.41 89.3657 116.766 89.7861 117.215 90.0857C117.664 90.3853 118.189 90.5518 118.729 90.5662C119.269 90.5805 119.802 90.442 120.267 90.1667L147.5 67.2333C147.88 67.2333 148.245 67.3843 148.514 67.6531C148.782 67.9219 148.933 68.2865 148.933 68.6667V140.333C148.715 140.459 148.468 140.525 148.217 140.525C147.965 140.525 147.718 140.459 147.5 140.333L67.2333 44.3C64.587 41.5994 60.9807 40.0539 57.2 40H54.3333C50.5319 40 46.8862 41.5101 44.1981 44.1981C41.5101 46.8862 40 50.5319 40 54.3333V154.667C40 158.468 41.5101 162.114 44.1981 164.802C46.8862 167.49 50.5319 169 54.3333 169C56.6868 168.841 58.9646 168.104 60.9649 166.854C62.9652 165.604 64.626 163.879 65.8 161.833L93.0333 123.133C93.3157 122.851 93.5396 122.516 93.6924 122.147C93.8452 121.778 93.9239 121.383 93.9239 120.983C93.9239 120.584 93.8452 120.189 93.6924 119.82C93.5396 119.451 93.3157 119.116 93.0333 118.833C92.751 118.551 92.4158 118.327 92.0469 118.174C91.678 118.021 91.2826 117.943 90.8833 117.943C90.484 117.943 90.0887 118.021 89.7198 118.174C89.3509 118.327 89.0157 118.551 88.7333 118.833L61.5 141.767C61.1199 141.767 60.7553 141.616 60.4865 141.347C60.2177 141.078 60.0667 140.713 60.0667 140.333V68.6667C60.2846 68.5409 60.5317 68.4746 60.7833 68.4746C61.0349 68.4746 61.2821 68.5409 61.5 68.6667L141.767 164.7C144.413 167.401 148.019 168.946 151.8 169H154.667C158.468 169 162.114 167.49 164.802 164.802C167.49 162.114 169 158.468 169 154.667V54.3333C169 50.5319 167.49 46.8862 164.802 44.1981C162.114 41.5101 158.468 40 154.667 40C152.313 40.1588 150.035 40.896 148.035 42.1462C146.035 43.3963 144.374 45.1208 143.2 47.1667V47.1667Z" fill="black"/>
</svg>
