<svg fill="none" xmlns="http://www.w3.org/2000/svg" viewBox="0 0 577 501"><g clip-path="url(#a)" stroke-width="1.06176"><path d="M103.469 308.5c0 55.761-45.4267 100.969-101.469 100.969S-99.4691 364.261-99.4691 308.5c0-55.761 45.4268-100.969 101.4691-100.969S103.469 252.739 103.469 308.5Z" stroke="url(#b)"/><path d="M83.4691 349.5c0 55.714-50.0776 100.969-111.9691 100.969S-140.469 405.214-140.469 349.5c0-55.714 50.0775-100.969 111.969-100.969 61.8915 0 111.9691 45.255 111.9691 100.969Z" stroke="url(#c)"/><circle r="132.189" transform="matrix(1 0 0 -1 513.362 -79.2766)" stroke="url(#d)"/><circle r="158.734" transform="matrix(1 0 0 -1 513.362 -79.2766)" stroke="url(#e)"/><circle r="185.278" transform="matrix(1 0 0 -1 513.362 -79.2766)" stroke="url(#f)"/></g><defs><linearGradient id="b" x1="2" y1="207" x2="2" y2="410" gradientUnits="userSpaceOnUse"><stop stop-color="#EBEBEB"/><stop offset="1" stop-color="#EBEBEB" stop-opacity="0"/></linearGradient><linearGradient id="c" x1="-28.5" y1="248" x2="-28.5" y2="451" gradientUnits="userSpaceOnUse"><stop stop-color="#EBEBEB"/><stop offset="1" stop-color="#EBEBEB" stop-opacity="0"/></linearGradient><linearGradient id="d" x1="132.72" y1="0" x2="132.72" y2="265.441" gradientUnits="userSpaceOnUse"><stop stop-color="#EBEBEB"/><stop offset="1" stop-color="#EBEBEB" stop-opacity="0"/></linearGradient><linearGradient id="e" x1="159.264" y1="0" x2="159.264" y2="318.529" gradientUnits="userSpaceOnUse"><stop stop-color="#EBEBEB"/><stop offset="1" stop-color="#EBEBEB" stop-opacity="0"/></linearGradient><linearGradient id="f" x1="185.808" y1="0" x2="185.808" y2="371.617" gradientUnits="userSpaceOnUse"><stop stop-color="#EBEBEB"/><stop offset="1" stop-color="#EBEBEB" stop-opacity="0"/></linearGradient><clipPath id="a"><rect width="577" height="501" rx="8.4941" fill="#fff"/></clipPath></defs></svg>