<svg width="577" height="501" viewBox="0 0 577 501" fill="none" xmlns="http://www.w3.org/2000/svg">
<g clip-path="url(#clip0_736_46481)">
<path d="M103.469 308.5C103.469 364.261 58.0423 409.469 2 409.469C-54.0423 409.469 -99.4691 364.261 -99.4691 308.5C-99.4691 252.739 -54.0423 207.531 2 207.531C58.0423 207.531 103.469 252.739 103.469 308.5Z" stroke="url(#paint0_linear_736_46481)" stroke-width="1.06176"/>
<path d="M83.4691 349.5C83.4691 405.214 33.3915 450.469 -28.5 450.469C-90.3915 450.469 -140.469 405.214 -140.469 349.5C-140.469 293.786 -90.3915 248.531 -28.5 248.531C33.3915 248.531 83.4691 293.786 83.4691 349.5Z" stroke="url(#paint1_linear_736_46481)" stroke-width="1.06176"/>
<circle r="132.189" transform="matrix(1 0 0 -1 513.362 -79.2766)" stroke="url(#paint2_linear_736_46481)" stroke-width="1.06176"/>
<circle r="158.734" transform="matrix(1 0 0 -1 513.362 -79.2766)" stroke="url(#paint3_linear_736_46481)" stroke-width="1.06176"/>
<circle r="185.278" transform="matrix(1 0 0 -1 513.362 -79.2766)" stroke="url(#paint4_linear_736_46481)" stroke-width="1.06176"/>
</g>
<defs>
<linearGradient id="paint0_linear_736_46481" x1="2" y1="207" x2="2" y2="410" gradientUnits="userSpaceOnUse">
<stop stop-color="#EBEBEB"/>
<stop offset="1" stop-color="#EBEBEB" stop-opacity="0"/>
</linearGradient>
<linearGradient id="paint1_linear_736_46481" x1="-28.5" y1="248" x2="-28.5" y2="451" gradientUnits="userSpaceOnUse">
<stop stop-color="#EBEBEB"/>
<stop offset="1" stop-color="#EBEBEB" stop-opacity="0"/>
</linearGradient>
<linearGradient id="paint2_linear_736_46481" x1="132.72" y1="0" x2="132.72" y2="265.441" gradientUnits="userSpaceOnUse">
<stop stop-color="#EBEBEB"/>
<stop offset="1" stop-color="#EBEBEB" stop-opacity="0"/>
</linearGradient>
<linearGradient id="paint3_linear_736_46481" x1="159.264" y1="0" x2="159.264" y2="318.529" gradientUnits="userSpaceOnUse">
<stop stop-color="#EBEBEB"/>
<stop offset="1" stop-color="#EBEBEB" stop-opacity="0"/>
</linearGradient>
<linearGradient id="paint4_linear_736_46481" x1="185.808" y1="0" x2="185.808" y2="371.617" gradientUnits="userSpaceOnUse">
<stop stop-color="#EBEBEB"/>
<stop offset="1" stop-color="#EBEBEB" stop-opacity="0"/>
</linearGradient>
<clipPath id="clip0_736_46481">
<rect width="577" height="501" rx="8.4941" fill="white"/>
</clipPath>
</defs>
</svg>
