<svg width="134" height="57" viewBox="0 0 134 57" fill="none" xmlns="http://www.w3.org/2000/svg">
<path d="M0.335938 37C0.635885 38.7745 1.13519 40.5139 1.82715 42.1844C3.03326 45.0962 4.80109 47.742 7.02969 49.9706C9.2583 52.1992 11.904 53.967 14.8159 55.1731C17.7277 56.3792 20.8485 57 24.0003 57C27.152 57 30.2728 56.3792 33.1847 55.1731C36.0965 53.967 38.7422 52.1992 40.9708 49.9706C43.1994 47.742 44.9673 45.0962 46.1734 42.1844C46.8653 40.5139 47.3646 38.7745 47.6646 37H40.3677C40.1641 37.8333 39.8966 38.6517 39.5668 39.4479C38.7201 41.4921 37.479 43.3496 35.9144 44.9141C34.3498 46.4787 32.4924 47.7198 30.4481 48.5666C28.4039 49.4133 26.2129 49.8491 24.0003 49.8491C21.7876 49.8491 19.5966 49.4133 17.5524 48.5666C15.5081 47.7198 13.6507 46.4787 12.0861 44.9141C10.5215 43.3496 9.28043 41.4921 8.43368 39.4479C8.1039 38.6517 7.83645 37.8333 7.6328 37H0.335938Z" fill="white"/>
<path d="M43 37C43.2999 38.7745 43.7992 40.5139 44.4912 42.1844C45.6973 45.0962 47.4651 47.742 49.6938 49.9706C51.9224 52.1992 54.5681 53.967 57.4799 55.1731C60.3917 56.3792 63.5126 57 66.6643 57C69.816 57 72.9369 56.3792 75.8487 55.1731C78.7605 53.967 81.4063 52.1992 83.6349 49.9706C85.8635 47.742 87.6313 45.0962 88.8374 42.1844C89.5294 40.5139 90.0287 38.7745 90.3286 37H83.0318C82.8281 37.8333 82.5607 38.6517 82.2309 39.4479C81.3841 41.4921 80.1431 43.3496 78.5785 44.9141C77.0139 46.4787 75.1564 47.7198 73.1122 48.5666C71.068 49.4133 68.877 49.8491 66.6643 49.8491C64.4517 49.8491 62.2607 49.4133 60.2164 48.5666C58.1722 47.7198 56.3148 46.4787 54.7502 44.9141C53.1856 43.3496 51.9445 41.4921 51.0977 39.4479C50.768 38.6517 50.5005 37.8333 50.2969 37H43Z" fill="white"/>
<path d="M85 37C85.2999 38.7745 85.7992 40.5139 86.4912 42.1844C87.6973 45.0962 89.4651 47.742 91.6938 49.9706C93.9224 52.1992 96.5681 53.967 99.4799 55.1731C102.392 56.3792 105.513 57 108.664 57C111.816 57 114.937 56.3792 117.849 55.1731C120.761 53.967 123.406 52.1992 125.635 49.9706C127.863 47.742 129.631 45.0962 130.837 42.1844C131.529 40.5139 132.029 38.7745 132.329 37H125.032C124.828 37.8333 124.561 38.6517 124.231 39.4479C123.384 41.4921 122.143 43.3496 120.578 44.9141C119.014 46.4787 117.156 47.7198 115.112 48.5666C113.068 49.4133 110.877 49.8491 108.664 49.8491C106.452 49.8491 104.261 49.4133 102.216 48.5666C100.172 47.7198 98.3148 46.4787 96.7502 44.9141C95.1856 43.3496 93.9445 41.4921 93.0977 39.4479C92.768 38.6517 92.5005 37.8333 92.2969 37H85Z" fill="white"/>
<path d="M7.32879 8.25713V28H2.18368V8.25713H7.32879ZM10.3921 28V13.0433H14.939L15.2082 18.1884L14.6398 17.62C14.8392 16.5432 15.1882 15.6458 15.6868 14.9278C16.2053 14.2099 16.8434 13.6715 17.6013 13.3125C18.379 12.9336 19.2465 12.7441 20.2037 12.7441C21.2407 12.7441 22.1381 12.9436 22.8959 13.3424C23.6737 13.7413 24.2819 14.3296 24.7207 15.1073C25.1594 15.8851 25.3787 16.8622 25.3787 18.0388V28H20.2935V19.3849C20.2935 18.3479 20.094 17.63 19.6952 17.2312C19.2963 16.8323 18.7878 16.6329 18.1696 16.6329C17.691 16.6329 17.2423 16.7525 16.8235 16.9919C16.4047 17.2112 16.0757 17.5702 15.8364 18.0687C15.5971 18.5673 15.4774 19.2354 15.4774 20.0729V28H10.3921ZM34.2088 8.28704V22.6754C34.2088 23.3933 34.3783 23.9118 34.7173 24.2309C35.0763 24.53 35.5649 24.6796 36.1831 24.6796C36.6617 24.6796 37.0705 24.6298 37.4096 24.53C37.7685 24.4104 38.0876 24.2409 38.3668 24.0215L38.9052 27.1624C38.4067 27.5214 37.7785 27.8006 37.0207 28C36.2629 28.1994 35.4851 28.2991 34.6874 28.2991C33.5507 28.2991 32.5636 28.1396 31.726 27.8205C30.9084 27.5014 30.2702 26.9929 29.8115 26.2949C29.3728 25.597 29.1435 24.6696 29.1235 23.513V9.69298L34.2088 8.28704ZM38.6659 13.0433V16.6628H26.551V13.0433H38.6659ZM47.4163 28.2991C45.7611 28.2991 44.3252 27.99 43.1088 27.3718C41.9122 26.7536 40.9849 25.8662 40.3268 24.7095C39.6687 23.5529 39.3397 22.1569 39.3397 20.5216C39.3397 18.8864 39.6687 17.4904 40.3268 16.3338C40.9849 15.1771 41.9023 14.2897 43.0789 13.6715C44.2754 13.0533 45.6414 12.7441 47.177 12.7441C48.7524 12.7441 50.0886 13.0533 51.1854 13.6715C52.3022 14.2697 53.1497 15.1073 53.728 16.1842C54.3064 17.2411 54.5955 18.4576 54.5955 19.8336C54.5955 20.1926 54.5856 20.5516 54.5656 20.9105C54.5457 21.2695 54.5158 21.5686 54.4759 21.8079H42.6302V19.0858H52.2324L49.8094 20.0131C49.8094 18.8166 49.59 17.8992 49.1513 17.2611C48.7325 16.6229 48.0744 16.3038 47.177 16.3038C46.5388 16.3038 45.9904 16.4534 45.5318 16.7525C45.093 17.0517 44.754 17.5203 44.5147 18.1585C44.2953 18.7966 44.1857 19.6143 44.1857 20.6114C44.1857 21.5886 44.3153 22.3862 44.5745 23.0045C44.8338 23.6027 45.2027 24.0415 45.6813 24.3206C46.1599 24.5799 46.7383 24.7095 47.4163 24.7095C48.1741 24.7095 48.7724 24.56 49.2111 24.2608C49.6698 23.9617 50.0088 23.5429 50.2282 23.0045L54.2964 24.3506C54.0172 25.2081 53.5286 25.936 52.8306 26.5342C52.1526 27.1126 51.335 27.5513 50.3777 27.8504C49.4404 28.1496 48.4533 28.2991 47.4163 28.2991ZM56.5429 28V13.0433H61.03L61.2393 16.2739C61.6183 15.1572 62.1766 14.2897 62.9145 13.6715C63.6723 13.0533 64.6295 12.7441 65.7862 12.7441C66.1651 12.7441 66.4842 12.7741 66.7434 12.8339C67.0226 12.8937 67.242 12.9735 67.4015 13.0732L66.893 17.2611C66.6936 17.1813 66.4343 17.1215 66.1152 17.0816C65.8161 17.0218 65.4472 16.9919 65.0084 16.9919C64.4102 16.9919 63.8518 17.1215 63.3333 17.3807C62.8148 17.64 62.396 18.0289 62.0769 18.5474C61.7778 19.0459 61.6282 19.6841 61.6282 20.4618V28H56.5429ZM73.8862 24.0215H83.7875V28H68.7411V8.25713H73.8862V24.0215ZM93.8254 18.5174C93.8254 17.8195 93.6259 17.271 93.2271 16.8722C92.8482 16.4534 92.3297 16.244 91.6716 16.244C91.0135 16.244 90.4452 16.4135 89.9665 16.7525C89.5079 17.0716 89.1888 17.65 89.0093 18.4875L84.7018 17.4705C84.981 16.0346 85.7188 14.8879 86.9154 14.0304C88.1119 13.1729 89.797 12.7441 91.9707 12.7441C93.4265 12.7441 94.6629 12.9635 95.68 13.4022C96.717 13.821 97.5047 14.4592 98.0432 15.3167C98.6015 16.1543 98.8807 17.1913 98.8807 18.4277V23.9019C98.8807 24.6796 99.2297 25.0685 99.9277 25.0685C100.287 25.0685 100.576 25.0286 100.795 24.9488L100.496 27.8504C99.8978 28.1296 99.1699 28.2692 98.3124 28.2692C97.5346 28.2692 96.8466 28.1496 96.2484 27.9103C95.6501 27.651 95.1814 27.2721 94.8424 26.7735C94.5034 26.255 94.3339 25.6069 94.3339 24.8292V24.6497L94.9023 24.4403C94.9023 25.2978 94.643 26.0157 94.1245 26.5941C93.6259 27.1724 92.9679 27.6012 92.1502 27.8803C91.3525 28.1595 90.5149 28.2991 89.6375 28.2991C88.6204 28.2991 87.733 28.1396 86.9752 27.8205C86.2174 27.5014 85.6291 27.0428 85.2103 26.4445C84.8115 25.8263 84.612 25.0685 84.612 24.1711C84.612 23.0942 84.9311 22.2068 85.5693 21.5088C86.2274 20.7909 87.2544 20.2923 88.6503 20.0131L94.304 18.8465L94.2741 21.5387L91.4024 22.137C90.8041 22.2566 90.3554 22.4361 90.0563 22.6754C89.7771 22.8948 89.6375 23.2338 89.6375 23.6925C89.6375 24.1312 89.797 24.4602 90.1161 24.6796C90.4352 24.899 90.8141 25.0087 91.2528 25.0087C91.5918 25.0087 91.9109 24.9588 92.21 24.8591C92.5291 24.7594 92.8083 24.6098 93.0476 24.4104C93.2869 24.191 93.4764 23.9218 93.616 23.6027C93.7556 23.2836 93.8254 22.9047 93.8254 22.466V18.5174ZM108.878 12.7441C110.393 12.7441 111.65 12.9635 112.647 13.4022C113.664 13.821 114.452 14.3894 115.01 15.1073C115.588 15.8053 115.947 16.5631 116.087 17.3807L111.39 18.9362C111.251 18.0787 110.992 17.4406 110.613 17.0218C110.254 16.583 109.725 16.3637 109.027 16.3637C108.389 16.3637 107.851 16.5132 107.412 16.8124C106.993 17.0916 106.674 17.5502 106.455 18.1884C106.235 18.8066 106.126 19.6043 106.126 20.5815C106.126 21.5586 106.245 22.3563 106.485 22.9745C106.724 23.5728 107.063 24.0115 107.502 24.2907C107.94 24.55 108.459 24.6796 109.057 24.6796C109.556 24.6796 109.965 24.5899 110.284 24.4104C110.623 24.211 110.902 23.9318 111.121 23.5728C111.341 23.2138 111.48 22.7751 111.54 22.2566L116.117 23.7224C115.977 24.5998 115.598 25.3876 114.98 26.0855C114.382 26.7636 113.584 27.302 112.587 27.7009C111.59 28.0997 110.423 28.2991 109.087 28.2991C107.452 28.2991 106.026 28 104.809 27.4017C103.593 26.7835 102.656 25.8961 101.998 24.7394C101.339 23.5628 101.01 22.1569 101.01 20.5216C101.01 18.8864 101.339 17.4904 101.998 16.3338C102.656 15.1572 103.573 14.2697 104.75 13.6715C105.946 13.0533 107.322 12.7441 108.878 12.7441ZM125.162 28.2991C123.507 28.2991 122.071 27.99 120.854 27.3718C119.658 26.7536 118.731 25.8662 118.073 24.7095C117.414 23.5529 117.085 22.1569 117.085 20.5216C117.085 18.8864 117.414 17.4904 118.073 16.3338C118.731 15.1771 119.648 14.2897 120.825 13.6715C122.021 13.0533 123.387 12.7441 124.923 12.7441C126.498 12.7441 127.834 13.0533 128.931 13.6715C130.048 14.2697 130.895 15.1073 131.474 16.1842C132.052 17.2411 132.341 18.4576 132.341 19.8336C132.341 20.1926 132.331 20.5516 132.311 20.9105C132.291 21.2695 132.261 21.5686 132.222 21.8079H120.376V19.0858H129.978L127.555 20.0131C127.555 18.8166 127.336 17.8992 126.897 17.2611C126.478 16.6229 125.82 16.3038 124.923 16.3038C124.285 16.3038 123.736 16.4534 123.277 16.7525C122.839 17.0517 122.5 17.5203 122.26 18.1585C122.041 18.7966 121.931 19.6143 121.931 20.6114C121.931 21.5886 122.061 22.3862 122.32 23.0045C122.58 23.6027 122.948 24.0415 123.427 24.3206C123.906 24.5799 124.484 24.7095 125.162 24.7095C125.92 24.7095 126.518 24.56 126.957 24.2608C127.416 23.9617 127.755 23.5429 127.974 23.0045L132.042 24.3506C131.763 25.2081 131.274 25.936 130.576 26.5342C129.898 27.1126 129.081 27.5513 128.123 27.8504C127.186 28.1496 126.199 28.2991 125.162 28.2991Z" fill="white"/>
</svg>
