<svg fill="none" xmlns="http://www.w3.org/2000/svg" viewBox="0 0 400 400"><path fill-rule="evenodd" clip-rule="evenodd" d="M0 200c127.124 0 200-72.876 200-200 0 127.124 72.876 200 200 200-127.124 0-200 72.876-200 200 0-127.124-72.876-200-200-200Z" fill="#fff"/><path fill-rule="evenodd" clip-rule="evenodd" d="M0 60c38.1371 0 60-21.8629 60-60 0 38.1371 21.8629 60 60 60-38.1371 0-60 21.8629-60 60 0-38.1371-21.8629-60-60-60ZM320 120c25.425 0 40-14.575 40-40 0 25.425 14.575 40 40 40-25.425 0-40 14.575-40 40 0-25.425-14.575-40-40-40Z" fill="#FEC84B"/></svg>